<svg xmlns="http://www.w3.org/2000/svg" width="960" height="170" viewBox="0 0 960 170">
  <rect width="960" height="170" fill="#f4c56f"/>
  <path d="M0 22 C170 5 290 42 480 20 C650 0 760 31 960 18 V170 H0Z" fill="#e9ad50" opacity=".32"/>
  <path d="M64 38 H896 M480 22 V152 M44 120 H916" stroke="#fff7d6" stroke-width="5" stroke-linecap="round" opacity=".58"/>
  <circle cx="10" cy="22" r="1" fill="#b77933" opacity=".32"/><circle cx="93" cy="59" r="2" fill="#b77933" opacity=".32"/><circle cx="176" cy="96" r="3" fill="#b77933" opacity=".32"/><circle cx="259" cy="133" r="1" fill="#b77933" opacity=".32"/><circle cx="342" cy="40" r="2" fill="#b77933" opacity=".32"/><circle cx="425" cy="77" r="3" fill="#b77933" opacity=".32"/><circle cx="508" cy="114" r="1" fill="#b77933" opacity=".32"/><circle cx="591" cy="151" r="2" fill="#b77933" opacity=".32"/><circle cx="674" cy="58" r="3" fill="#b77933" opacity=".32"/><circle cx="757" cy="95" r="1" fill="#b77933" opacity=".32"/><circle cx="840" cy="132" r="2" fill="#b77933" opacity=".32"/><circle cx="923" cy="39" r="3" fill="#b77933" opacity=".32"/><circle cx="66" cy="76" r="1" fill="#b77933" opacity=".32"/><circle cx="149" cy="113" r="2" fill="#b77933" opacity=".32"/><circle cx="232" cy="150" r="3" fill="#b77933" opacity=".32"/><circle cx="315" cy="57" r="1" fill="#b77933" opacity=".32"/><circle cx="398" cy="94" r="2" fill="#b77933" opacity=".32"/><circle cx="481" cy="131" r="3" fill="#b77933" opacity=".32"/><circle cx="564" cy="38" r="1" fill="#b77933" opacity=".32"/><circle cx="647" cy="75" r="2" fill="#b77933" opacity=".32"/><circle cx="730" cy="112" r="3" fill="#b77933" opacity=".32"/><circle cx="813" cy="149" r="1" fill="#b77933" opacity=".32"/><circle cx="896" cy="56" r="2" fill="#b77933" opacity=".32"/><circle cx="39" cy="93" r="3" fill="#b77933" opacity=".32"/><circle cx="122" cy="130" r="1" fill="#b77933" opacity=".32"/><circle cx="205" cy="37" r="2" fill="#b77933" opacity=".32"/><circle cx="288" cy="74" r="3" fill="#b77933" opacity=".32"/><circle cx="371" cy="111" r="1" fill="#b77933" opacity=".32"/><circle cx="454" cy="148" r="2" fill="#b77933" opacity=".32"/><circle cx="537" cy="55" r="3" fill="#b77933" opacity=".32"/><circle cx="620" cy="92" r="1" fill="#b77933" opacity=".32"/><circle cx="703" cy="129" r="2" fill="#b77933" opacity=".32"/><circle cx="786" cy="36" r="3" fill="#b77933" opacity=".32"/><circle cx="869" cy="73" r="1" fill="#b77933" opacity=".32"/><circle cx="12" cy="110" r="2" fill="#b77933" opacity=".32"/><circle cx="95" cy="147" r="3" fill="#b77933" opacity=".32"/><circle cx="178" cy="54" r="1" fill="#b77933" opacity=".32"/><circle cx="261" cy="91" r="2" fill="#b77933" opacity=".32"/><circle cx="344" cy="128" r="3" fill="#b77933" opacity=".32"/><circle cx="427" cy="35" r="1" fill="#b77933" opacity=".32"/><circle cx="510" cy="72" r="2" fill="#b77933" opacity=".32"/><circle cx="593" cy="109" r="3" fill="#b77933" opacity=".32"/><circle cx="676" cy="146" r="1" fill="#b77933" opacity=".32"/><circle cx="759" cy="53" r="2" fill="#b77933" opacity=".32"/><circle cx="842" cy="90" r="3" fill="#b77933" opacity=".32"/><circle cx="925" cy="127" r="1" fill="#b77933" opacity=".32"/>
</svg>
